<svg xmlns="http://www.w3.org/2000/svg" viewBox="0 0 626.58 640.03"><defs><style>.a{fill:#be3540;}</style></defs><path class="a" d="M494.13,686.24c-9.44,3.29-18.95,4.22-28.65,4-2.92-.07-5.85,1.19-8.69-.75-.75-.51-2.21-.22-3.3,0-2.84.51-5.55,1.24-8.36-.53-.87-.54-2.57.24-3.9.31q-5.12.28-10.23.45c-2.47.08-4.95,0-7.42.13-5,.24-10,.61-15,.83-1.47.07-2.95-.33-4.42-.3-4.08.09-8.16.27-12.24.46-1.25.06-2.59.67-3.7.37-4.18-1.15-8.32-.43-12.47-.48-6.88-.09-13.73-2.54-20.61-3.91-1.17-.24-2.77-.56-3.57,0-2.72,1.88-4.61.76-6.71-1a12.86,12.86,0,0,0-3.65-1.76c-6.15-2.31-12.25-4.78-18.52-6.73a17.74,17.74,0,0,0-7.75-.21c-6.45,1-12.63,0-19-.94-4.27-.65-8.91.61-13.33,1.35-7.39,1.23-14.76,2.63-22.1,4.13-3.51.72-7,1.75-10.41,2.79-5,1.51-9.92,3.22-14.91,4.74a9.38,9.38,0,0,1-8.2-.93c-1.66-1-4.72.54-7.16.58-1.95,0-3.9-.59-5.86-.66-5.12-.2-10.4-1.07-15.31-.15-6.33,1.18-12.36,3.86-18.53,5.84a5.9,5.9,0,0,1-2.22.2c-6.09-.37-12.27-.24-18.24-1.3-8.6-1.52-16.75,1.07-25.12,1.54q-14.82.84-29.65,1.59c-2.4.11-4.47-.88-4.71-3.33-.3-3.15-1.15-7.11.37-9.33s5.58-3.8,8.74-4.31c5.3-.86,10.77-.71,16.18-.9,4.15-.15,4.83-1.12,3.6-5a31.1,31.1,0,0,1-4.36,1.39c-.25.05-1.27-1.87-1.1-2a39,39,0,0,1,4.19-3,15.61,15.61,0,0,0,.25-3,19,19,0,0,0-.81-3.35c-1,.52-2,1.08-3.08,1.54s-2.23,1.25-2.84.93a4.1,4.1,0,0,1-2-2.77,35.05,35.05,0,0,1,.22-6.63c.64-6.62,1.35-13.23,2.08-19.84a14.23,14.23,0,0,1,.71-2.84c1.45-4.41,3.58-8.7,4.28-13.22,1.49-9.46,2.1-19,3.33-28.54a143.28,143.28,0,0,1,3-16.33c2.17-8.68,4.76-17.27,7.16-25.9.13-.47.39-1,.24-1.42-3.34-8.07,2.4-15,3-22.54.27-3.54.76-7.06,1.25-10.57.25-1.82.73-3.61,1.11-5.41,1-4.87,2.13-9.73,3-14.63.72-4.1,1.2-8.24,1.66-12.37.52-4.57.41-9.26,1.47-13.7,1.74-7.27,4.2-14.37,6.36-21.55.07-.23.25-.43.33-.66,2.3-6.64,4.52-13.3,6.91-19.9,2.89-8,6-15.94,8.87-23.92,1.3-3.57,2.12-7.34,3.7-10.77a84.87,84.87,0,0,1,5.7-9.42c6.19-9.8,11.5-20.33,18.94-29.12,4.9-5.77,9.1-11.87,13.49-17.92a4.3,4.3,0,0,1,1.27-1.34c5.89-3.07,8.57-9.26,13.5-13.27s9.86-8.57,14.81-12.84c.54-.46,1.56-1.1,2-.9,3.38,1.67,4.73-1.05,6.48-2.76,4.06-4,9.11-5.58,14.64-5.95,7.7-.51,14.93-2.71,22-5.53a5.41,5.41,0,0,0,1.87-1.2c5.19-5.43,10.15-11.09,15.58-16.29,2.65-2.54,6.15-4.24,9.27-6.31,1-.69,2.48-1.1,3.11-2.05,3.31-5,7-9.49,13-11.66.75-.27.85-2,1.54-2.76,1.58-1.83,3.1-3.85,5.08-5.16,3.31-2.17,7-3.79,10.46-5.75a21.26,21.26,0,0,0,4.62-3.17c4.22-4.23,9.6-5,15.2-5.33,4.46-.26,6.66-3,5.7-7.24-2.7-11.84-5.31-23.71-8.21-35.51a59.19,59.19,0,0,0-4.17-11.83c-3.45-7.07-4.16-14.61-4.91-22.2-.76-7.8-1.35-15.63-2.57-23.37-1.09-7-3.31-13.76-4.33-20.73-.81-5.54-.64-11.23-.78-16.85s0-11.32-.24-17c0-.89-1.29-1.92-2.22-2.54-6.24-4.15-7.25-7-4.85-14a6.21,6.21,0,0,0,.66-2.48c-.44-3,1.52-3.56,3.81-3.58a41.55,41.55,0,0,1,8,.41c.94.18,2,1.8,2.27,2.94.6,2.16,1.84,3,4,3.12,3.59.22,7.17.65,10.75.95,5.47.45,11.34,7.13,11.75,12.59.22,2.84,1.48,5.69,2.68,8.36,1.88,4.21,4.44,8.16,6.07,12.45,1.28,3.35,1,7.32,2.49,10.54s0,6.29.21,9.4c.53,7,1.19,14,1.12,21,0,3.26.58,6.37.75,9.4.38,7,1.48,13.87,4.1,20.07,3.5,8.25,2.25,17.94,8.55,25.26a19.34,19.34,0,0,1,3.83,7c.65,2.2.33,4.74.15,7.1a14.81,14.81,0,0,1-1.2,5.38c-3,6-1.71,12.14-.85,18.32.24,1.69-.4,3.49-.69,5.65a2.54,2.54,0,0,0,1.08.31c4.84-.1,9.71-.66,14.5-.25,3.47.29,6.87,1.72,10.24,2.85,2.45.81,4.75,2,7.17,2.92,5.5,2.06,11,4.22,16.57,6,3.53,1.12,7.43,1.22,10.86,2.53,5,1.91,9.65,4.53,14.49,6.79a17.62,17.62,0,0,0,2.85.8c.83.22,1.93.18,2.46.7,6.14,6,14.46,8.79,21.22,13.82,4.13,3.07,7.69,6.86,11.65,10.17,2.35,2,5.11,3.48,7.44,5.48,1.59,1.36,2.63,3.31,4.14,4.79q5.64,5.52,11.51,10.84a52.54,52.54,0,0,0,4.82,3.51c14.27,10.13,25.81,22.92,36.28,36.6,3.78,4.95,6,11.07,9,16.58,2.57,4.63,5.45,9.1,8,13.73q5.64,10.2,11,20.56c1.76,3.38,3.24,6.91,4.84,10.38q4.46,9.66,8.9,19.33a172.5,172.5,0,0,0,8.54,16.68c3.94,6.62,5.69,14.61,7.71,22.18,2.25,8.41,3.87,17,5.5,25.55,1.38,7.25,2.53,14.55,3.52,21.87.77,5.67.67,11.49,1.77,17.08,2,10.21,4.39,20.36,7.05,30.41,2.13,8.07,4.93,16,7.42,23.94.94,3,1.57,6.18,2.8,9.09,2.37,5.56,5.18,10.93,7.6,16.47s4.38,11,6.72,16.36a9.26,9.26,0,0,0,2.8,3.63c2.59,1.92,5.41,3.54,8.14,5.27,4.89,3.1,6.12,7.62,5,12.87-.88,4.08-2.12,8.08-3.17,12.12-1.09,4.21-.3,4.89,4.19,4.7a128.34,128.34,0,0,1,14.28.07c5,.33,5.86,1.94,4.3,6.46-.4,1.15-.58,2.39-.89,3.58-.72,2.82-2.48,4.59-5.52,4.66-9,.23-18.1-.07-27.09.68a39.49,39.49,0,0,0-14.8,4c-5,2.65-10.18,3.28-15.5,3.86-1.1.13-2.48-.95-3.53-1.74a6.31,6.31,0,0,0-6.29-.92,30,30,0,0,1-9.27,1.33c-4.33-.07-8.64-.92-13-1.17a6.57,6.57,0,0,0-4.11,1.2c-1.79,1.41-3.25,1.46-4.46-.29s-2.61-1.71-4.48-.88a11.33,11.33,0,0,1-5.07,1.13c-5-.31-10.07-1.2-15.13-1.39-3.52-.13-7.08.61-10.63.8-2.73.14-5.49.15-8.23,0-3.25-.14-6.5-.38-9.73-.77-5.27-.64-10.53-1.15-15.84-1.44-5.67-.31-10.62.82-16,1.56-9.4,1.31-18.31,5.54-28.14,4.39a23.59,23.59,0,0,0-7.47.85C497.73,689.1,495.41,689.13,494.13,686.24ZM275.43,329.12c-3,2-5.9,4.23-9.06,6.07q-8,4.67-16.32,8.92c-3.51,1.81-7.34,3-10.75,5-6.08,3.46-11.93,7.21-19.35,7.42-1.2,0-2.85,1.62-3.42,2.87a92,92,0,0,0-4.46,11.74c-.92,3-.87,6.47-5.28,6.95-.45.05-.87,1.12-1.16,1.78-2.44,5.34-4.8,10.72-7.27,16.05-1.27,2.75-2.06,6.18-4.22,7.94-3.49,2.85-4.71,6.33-5.6,10.24-1.26,5.51-2.48,11-3.73,16.54-.49,2.11-1.46,4.19-1.48,6.3-.06,6.67.58,13.35.3,20-.54,12.53-1.58,25-2.33,37.56-.35,5.84-.39,11.7-.78,17.54-.32,4.75-.94,9.48-1.44,14.22-.23,2.14-.34,4.29-.75,6.4-.59,3.07-1.94,6.1-2,9.17-.16,8.44.27,16.9.26,25.35a36.21,36.21,0,0,1-1.05,8c-1.31,5.74-2.95,11.4-4.28,17.13-1.18,5.12-1.94,10.34-3.21,15.43-2,8.06-1.81,16.14-1.4,24.34a97.92,97.92,0,0,1-1.16,17.83c-.3,2.23-2.15,4.26-3.45,6.69,4,1.73,7.09-.4,10.23-1.44,7.73-2.57,15.22-5.78,23.77-4.55a42.55,42.55,0,0,0,12.38.35c8.29-1.26,16.69-2.57,24.62-5.13,10.11-3.27,20.59-4.43,30.82-6.87,8.42-2,16.79-.46,25.15-1.14.91-.08,1.88.6,2.83.9,3.18,1,4.37,3.87,6.38,6.07a22.67,22.67,0,0,0,10.52,6.86c4.29,1.2,8.06,4,12.92,3.38,3.65-.44,7.37-.48,11.06-.56a30,30,0,0,1,3.69.56c3.18.34,6.48,1.25,9.55.78a53.59,53.59,0,0,1,15.69.25c6.5.9,13.22.65,19.81.36,2.74-.12,4.39-2,3.1-5.29-3.08-7.91-3.09-16.25-3.16-24.57q-.07-10-.25-20c-.08-5.31-3.41-10.26-1.23-15.93.94-2.45.54-5.61,0-8.32s-2.18-5.54.33-8.28c.29-.31-.33-1.34-.39-2-.47-5.16-.94-10.33-1.32-15.49-.24-3.11-.18-6.23-.53-9.32-.21-1.8-1.38-3.53-1.41-5.3-.11-7.26-.42-14.55.21-21.76.93-10.71,2.8-21.34,3.9-32,1.05-10.26,1.68-20.56,2.4-30.85.32-4.57.43-9.16-3.34-12.76a2.62,2.62,0,0,1-.77-1.64c-.29-8.47-.76-16.93-.7-25.4.05-6.47.8-12.94,1.24-19.4,0-.61-.13-1.45.21-1.8,2.66-2.68,1.87-6,1.78-9.12-.16-5.78-.51-11.55-.73-17.32-.16-4.49-.34-9-.34-13.47,0-2.93.27-5.85.49-8.77.45-5.7,4.79-11,1.84-17.08-.24-.51.15-1.49.52-2.08a19.28,19.28,0,0,0,2.88-11.6c-.21-4.89.51-10.36-1.5-14.48-2.79-5.69-2.47-11.46-3.06-17.18-.62-6.07-.07-12.25-.16-18.37a18,18,0,0,0-.93-3.85l-1.05,0c-.48.78-1,1.56-1.43,2.34-2.1,3.47-2.92,3.56-5.77.6l-5.64-5.8c-2.8,2.9-5.14,5.27-7.42,7.68-3.56,3.76-6.91,7.72-10.68,11.24-1.86,1.74-5,2.24-6.64,4.09-4,4.5-9.87,5-14.81,6.23-9.59,2.36-18.83,4.22-25.33,12.51-3.8,4.85-8.42,9.08-12.54,13.7-2.39,2.68-4.39,5.72-6.8,8.38-3.55,3.91-3.64,3.82-7.47.76-.12-.1-.47.08-1.29.24ZM666.66,626c-6.36-4.49-7-10.59-8.29-16.44-.54-2.52-.24-5.36-1.33-7.57-3.85-7.85-8.09-15.51-12.28-23.2-3.81-7-8.14-13.72-11.52-20.89a241.14,241.14,0,0,1-10.77-26.2c-3.53-10.57-6.12-21.45-9.13-32.19-1.86-6.63-3.66-13.27-5.64-19.87a41.93,41.93,0,0,0-2.63-6.05c-2.69-5.49-6-10.76-8-16.47-2.65-7.52-4-15.46-6.46-23.06a176.25,176.25,0,0,0-7.35-18.53c-2.28-5-5.31-9.73-7.7-14.72-2.21-4.64-3.94-9.49-6-14.19-.85-1.9-2.55-3.52-3.08-5.47-2.3-8.54-4.26-17.17-6.48-25.73-.87-3.37-1.57-6.94-3.27-9.92-1.94-3.4-4.87-6.28-7.44-9.33a5.44,5.44,0,0,0-2.47-2c-3.41-.73-6.9-1.09-10.33-1.73-3.66-.68-7.56-.93-10.87-2.41a40,40,0,0,0-18.17-3.18,23.9,23.9,0,0,1-13.4-3.57c-5.95-4-10.85-9.55-16.2-14.44-.73-.68-1.51-1.31-2.22-2-5.45-5.24-10.7-10.71-16.44-15.62-1.7-1.45-4.75-1.41-7.21-2-1-.21-2,0-3-.21-5.88-1.54-11.82-2.89-17.55-4.83-4.74-1.59-9.23-3.9-14-6-5.1,2.92-7.17,7.33-5.74,13.68.62,2.72-.51,5.79-.65,8.71a26.4,26.4,0,0,0,.33,6c.3,1.59,1.59,3,1.74,4.6.78,7.81,1.31,15.63,2,23.44.09,1.11.26,2.21.35,3.31.27,3.43,1,6.91.69,10.3-1.28,15.15-1,30.15,3,44.95a11.25,11.25,0,0,1,.23,3.28c-.19,4.9-.67,9.79-.63,14.69,0,4.52,1,9.06.84,13.56-.3,7.21-1.22,14.39-1.86,21.59-.29,3.3-.5,6.6-.79,9.9-.68,7.81-1.32,15.62-2.09,23.41-.75,7.54,1.93,15.08-.53,22.69-.89,2.75,0,6,0,9.09.13,5.41.35,10.82.35,16.22,0,6.72-.34,13.45-.22,20.17.06,4,.91,8.08,1,12.13.23,7.62-.05,15.26.33,22.86.55,10.92,1.42,21.82,2.28,32.72.5,6.26,1.08,12.51,1.91,18.73.52,3.9,1.85,4.44,5.68,3.56,1.92-.45,4.16-1,5.92-.5,8.38,2.56,17,3.2,25.67,3.42,11.32.3,22.65.52,34,.19,5.33-.16,10.59-2.06,15.94-2.5,6.63-.54,13.35-.06,20-.6a154.42,154.42,0,0,1,28.84.64c8.45.89,17,.75,25.56.65,8.29-.09,16.58-.75,24.88-1.09,4.64-.19,9.43.41,13.91-.51,9.33-1.89,18.49-4.57,27.73-6.91C653.66,629.23,659.36,627.84,666.66,626ZM530.22,656.26a31,31,0,0,0,4.81.91c5.79.16,11.59,0,17.37.28,4,.21,7.86,1.33,11.8,1.48a156.14,156.14,0,0,1,34.07,4.63c4.26,1.11,8.87,1,13.33,1.32,1.88.15,3.78,0,5.64.17,8.49.89,16.87,2.39,25.54,1.32,5.56-.69,11.3.12,17-.08a63.2,63.2,0,0,0,10.67-1.44c2.05-.43,3.87-2,5.92-2.35,4.48-.75,6.49-2.82,5.13-6.56,1.36-1.65,3.22-2.91,3.08-3.89-.56-4-.71-8.36-4.82-11.77a27.39,27.39,0,0,1-2.69,3.23c-2.82,2.5-6.14,2.82-8.12.06-2.21-3.08-4.32-2.81-7.27-1.68-1.45.56-3.21.39-4.82.53a49.37,49.37,0,0,0-6,.53c-4.72,1-9.46,2-14.08,3.43-9.92,3-19.82,5.87-30.38,5.47-2-.07-3.93.74-5.91,1a18.29,18.29,0,0,1-3,0c-5-.12-10-.41-14.93-.32-5.75.11-11.48.6-17.23.83s-11.64-.24-17.26.73A23.42,23.42,0,0,1,536,652.86C532.79,651.74,531.19,652.34,530.22,656.26ZM170.4,458.05,169,458a23.5,23.5,0,0,0-1.82,4.29c-1.66,7.9-3.14,15.84-4.78,23.74-.62,3-2.15,5.95-2.19,8.93-.13,12.27-2.64,24.16-5.24,36.05-.59,2.73-1.78,5.41-1.87,8.14-.21,6,.09,12,.24,18,.16,6.62.5,13.24.55,19.86a93.72,93.72,0,0,1-.69,10.17c-.72,6.94-1.33,13.89-2.39,20.78-.85,5.57-2.6,11-3.41,16.59-1.17,8.15-1.87,16.37-2.74,24.56-.25,2.4-1.35,5.49-.26,7,1,1.34,4.46,1,6.74,1.32,2.06-3.49,4.57-6.59,2.48-10.77-.33-.65.11-1.67.2-2.52.26-2.67.89-5.36.72-8-.75-12.42-.62-24.62,3.2-36.75A103.28,103.28,0,0,0,162.88,571c.28-10.69,1.24-21.35,1.78-32,.32-6.24.46-12.5.54-18.75.05-3.76-.21-7.52-.25-11.29a10.11,10.11,0,0,1,.47-2.76c.44-1.58,1.3-3.1,1.42-4.69.51-6.86.6-13.74,1.26-20.58.62-6.46,1.81-12.86,2.64-19.3A15.47,15.47,0,0,0,170.4,458.05Zm476.19,89.64,1.85-.35c-.21-1.62-.37-3.25-.65-4.85-1.83-10.63-3.82-21.24-5.48-31.89-1.76-11.21-1.92-22.75-7.71-33.06a4.67,4.67,0,0,1,0-2.5,21.27,21.27,0,0,0-2.84-13.12c-3.13-5.44-6.54-10.77-9.13-16.45-3-6.49-4.92-13.39-7.69-20s-6-13.05-9.11-19.54c-1.3-2.72-2.71-5.39-4.11-8.07a7.72,7.72,0,0,0-1.08-1.42c-1.67-1.88-3.42-3.69-5-5.64a22.25,22.25,0,0,1-1.82-3.2l-1.19.44a20.88,20.88,0,0,0,.9,3.9c2.29,5.19,4.34,10.53,7.17,15.42,4.36,7.51,6.28,15.61,8,23.94,1.36,6.44,3.79,12.69,6.12,18.88,3,8.06,6.45,16,9.62,24a58,58,0,0,1,2.62,7.83c1.39,5.93,2.19,12,3.87,17.86,2.21,7.65,5.1,15.11,7.6,22.68C641.27,530.92,643.91,539.31,646.59,547.69ZM233.81,672.16c2.07-.68,4.84-1.78,7.71-2.51,9.59-2.44,19.18-4.86,28.83-7.06,5.11-1.17,10.37-1.68,15.48-2.87,1.51-.35,2.7-2,4-3-1.29-1.09-2.61-2.14-3.87-3.28-3.34-3-8.7.82-11.77-3.31-.15-.21-1.67.09-2,.54-2.7,3.82-7.34,2.19-10.92,3.69-4,1.67-8.72,1.52-13.1,2.32-3.07.56-6.32.91-9.08,2.19-5.84,2.71-11.81,3.47-18.22,3.74-7.39.31-14.69,2.31-22.06,3.29-2.62.34-5.35-.18-8-.29-2-.08-4.17-.52-6.11-.12-6.48,1.36-12.94,2.84-19.3,4.64-4.63,1.31-8.76,1.52-12.8-1.62-.76-.59-2.77.23-4.13.65-.32.1-.63,1.63-.42,1.77a7.37,7.37,0,0,0,3.09,1.45c3,.38,6.51-.31,9.09.89,6,2.78,12.11,2.08,18.08,1.49,9.82-1,19.51-3.07,29.3-4.26C216.15,669.43,224.65,670.26,233.81,672.16Zm287.43-365,.32-1.06c-4.29-4-8.31-8.31-12.94-11.89-5.16-4-10.92-7.23-16.34-10.91a120.3,120.3,0,0,0-32.42-15.61c-11.91-3.68-23.49-8.37-35.37-12.16-3.17-1-6.9-.41-10.37-.42-.42,0-1,.71-1.23,1.21a30.8,30.8,0,0,0-2.11,6.24c-.18,1.14.42,3.08,1.3,3.56,1.78,1,4,1.19,6,1.73,2-1.93,2.24-5.72,6.21-6.11.08,1.49.15,2.6.22,3.82,4-1.61,3.91-1.52,8.55.79,1.81.9,4.15,2.26,5.75,1.78,3.16-.92,5.2.45,7.71,1.57a49.75,49.75,0,0,0,8.73,2.64c2.12.51,4.38.44,6.49,1a24.69,24.69,0,0,1,6.3,2.39c5.76,3.33,11.88,6.32,16.94,10.51,5.73,4.74,10.4,10.71,15.7,16,1.9,1.89,4.1,4.34,6.47,4.73C511.75,307.73,516.54,307.2,521.24,307.2ZM392.59,554l1.56,0c.52-2.51,1.1-5,1.55-7.52,1.15-6.49,2.63-12.95,3.22-19.48.51-5.6.11-11.29-.15-16.93-.27-6-1.44-12-1.16-18,.54-11.51,1.91-23,2.73-34.48.19-2.8-.45-5.65-.7-8.48l-1.15-.06a7.75,7.75,0,0,0-.86,2.12c-.83,9.8-1.43,19.61-2.43,29.39-.93,9-2.34,18-3.41,27-.4,3.38-.54,6.81-.63,10.22-.06,2.33.18,4.67.27,7Q392,539.48,392.59,554ZM504.52,671.39c0-.41-.09-.82-.14-1.23a14.22,14.22,0,0,0-1.83-.2c-5.73,0-11.47.32-17.17,0-3.95-.22-7.84-1.42-11.78-2a132,132,0,0,0-14.94-1.66c-3.71-.09-7.44,1-11.18,1.3-5.13.45-10.28.65-15.41,1-4.85.38-9.7.81-14.53,1.35s-9.38,1.17-14.05,1.92c-.72.11-1.31,1.08-2,1.66l.33.91a38.31,38.31,0,0,0,3.85.27c5.51-.13,11-.43,16.54-.48,7.77-.09,15.54,0,23.31,0,4.89,0,9.77,0,14.65.05,2.26,0,4.53.54,6.76.36,9.48-.74,18.93-1.66,28.4-2.51Zm-378-14.71,1.53.21c2.88-2.89,3.6-6.63,4.28-10.52,1.66-9.4,3.57-18.76,5.34-28.14.85-4.46,2-8.9,2.38-13.41.84-8.79,1.3-17.62,1.86-26.44a6.7,6.7,0,0,0-.56-2.1l-1,0A50,50,0,0,0,139,581.4c-1.4,9.48-2.79,19-4,28.46-.66,5.12-.41,10.4-1.54,15.39-1.92,8.45-4.72,16.7-6.91,25.1C126.05,652.34,126.49,654.57,126.49,656.68ZM369.05,157.56l1,0a23,23,0,0,0,.34-3.39c-.2-3.76-1-7.56-.68-11.26.87-9.53-2.33-18.44-3.67-27.63-.87-5.91-2.1-11.81-2.48-17.75-.41-6.54-2-13.17.5-19.73.27-.69-1.39-2.1-2.15-3.18a17.62,17.62,0,0,0-2.65,3.06c-.32.6.33,1.64.41,2.49.65,6.29,1.34,12.58,1.88,18.88.59,6.82.83,13.67,1.6,20.46.95,8.34,2.24,16.65,3.51,25C367.29,148.83,368.23,153.19,369.05,157.56Zm31,178.9-1.51.13a106.49,106.49,0,0,0-1,11c.07,9.34.65,18.67.64,28,0,11.91-.45,23.82-.58,35.73a65.11,65.11,0,0,0,.69,9.56c.11.83,1.32,1.51,2,2.26.52-.68,1.53-1.39,1.49-2-.32-4.28-.94-8.52-1.31-12.79a97.24,97.24,0,0,1-.59-11.55c.37-10.12,1.14-20.21,1.5-30.33.17-4.66-.16-9.35-.39-14C400.81,347.06,400.41,341.76,400.08,336.46Zm-164-3,.75,1.19c1.87-.83,3.78-1.57,5.58-2.52,2-1.09,3.85-3,6-3.45,7.54-1.72,13.65-5.82,19.57-10.35.71-.53,1.32-1.19,2.53-2.3-5.73-.9-10.79-1-14.95,1.65-5.62,3.61-10.7,8-15.94,12.18A40.25,40.25,0,0,0,236.07,333.44ZM336.8,268.17c6.54-2,12.71-4,17-9.5C349,257.08,338.84,262.85,336.8,268.17ZM384.25,211c-.23-2.42-.44-4.69-.67-7a2.31,2.31,0,0,0-.24-1.07,7.91,7.91,0,0,0-1.68-1.78c-.18-.12-1.11.44-1.34.88C379.1,204.31,381.41,209.77,384.25,211Zm13.08,394.17,1,.06c2.22-5.62,2.33-9-.29-12.07C397.76,597.67,397.54,601.42,397.33,605.18Zm.06-397.54,2.35-.3c-.24-1.73-.49-3.45-.73-5.17a13.59,13.59,0,0,0-2.17.38C396.92,204.25,397.18,205.94,397.39,207.64ZM519.55,654l.54,2,4.62-1.11c-.28-.61-.62-1.77-.82-1.75A41.29,41.29,0,0,0,519.55,654Z" transform="translate(-99.66 -55.87)"/></svg>